<svg width="180" height="180" viewBox="0 0 180 180" fill="none" xmlns="http://www.w3.org/2000/svg">
<g clip-path="url(#clip0_300_107)">
<path d="M120 82.5C132.45 82.5 142.425 72.45 142.425 60C142.425 47.55 132.45 37.5 120 37.5C107.55 37.5 97.5 47.55 97.5 60C97.5 72.45 107.55 82.5 120 82.5ZM60 82.5C72.45 82.5 82.425 72.45 82.425 60C82.425 47.55 72.45 37.5 60 37.5C47.55 37.5 37.5 47.55 37.5 60C37.5 72.45 47.55 82.5 60 82.5ZM60 97.5C42.525 97.5 7.5 106.275 7.5 123.75V142.5H112.5V123.75C112.5 106.275 77.475 97.5 60 97.5ZM120 97.5C117.825 97.5 115.35 97.65 112.725 97.875C121.425 104.175 127.5 112.65 127.5 123.75V142.5H172.5V123.75C172.5 106.275 137.475 97.5 120 97.5Z" fill="black"/>
</g>
<defs>
<clipPath id="clip0_300_107">
<rect width="180" height="180" fill="white"/>
</clipPath>
</defs>
</svg>
