<svg width="185" height="155" viewBox="0 0 185 155" fill="none" xmlns="http://www.w3.org/2000/svg">
<path d="M92.5 4.84375C75.1562 4.84375 63.5938 14.5312 63.5938 24.2188C63.5938 38.75 69.375 48.4375 75.1562 53.2812V58.125H109.844V53.2812C115.625 48.4375 121.406 38.75 121.406 24.2188C121.406 14.5312 109.844 4.84375 92.5 4.84375ZM69.5195 24.6214L92.5 31.0303L115.48 24.6214L101.316 54.2803L95.2461 52.2822L104.207 33.5127L92.5 36.7822L80.793 33.5127L89.7539 52.2822L83.6836 54.2803L69.5195 24.6214ZM39.4209 48.5586C30.9658 49.4668 23.3057 57.792 23.3057 68.5088C23.3057 74.4424 25.7627 79.6797 29.3398 83.3125L33.6396 87.6113L27.0273 88.6406C22.3662 89.3975 18.9697 91.4561 16.043 94.8164C13.1162 98.1768 10.876 102.839 9.32227 108.258C6.50391 118.006 5.85352 129.934 5.78125 140.469H21.2461L22.0555 149.551H61.2813L62.0039 140.469H76.7461C76.7461 129.812 76.6016 117.733 74.0361 107.864C72.5908 102.445 70.459 97.7832 67.4961 94.4531C64.5332 91.123 60.9561 89.0645 55.7168 88.3984L49.0322 87.5205L53.2598 83.0703C56.6924 79.4678 59.0049 74.291 59.0049 68.5088C59.0049 57.0654 50.4775 48.5889 41.1553 48.5889L39.4209 48.5586ZM141.894 48.5586C133.438 49.4668 125.778 57.792 125.778 68.5088C125.778 74.4424 128.235 79.6797 131.812 83.3125L136.112 87.6113L129.5 88.6406C124.839 89.3975 121.442 91.4561 118.516 94.8164C115.589 98.1768 113.349 102.839 111.795 108.258C108.977 118.006 108.326 129.934 108.254 140.469H123.719L124.514 149.551H163.754L164.477 140.469H179.219C179.219 129.812 179.074 117.733 176.509 107.864C175.063 102.445 172.932 97.7832 169.969 94.4531C167.006 91.123 163.429 89.0645 158.189 88.3984L151.505 87.5205L155.732 83.0703C159.165 79.4678 161.478 74.291 161.478 68.5088C161.478 57.0654 152.95 48.5889 143.628 48.5889L141.894 48.5586ZM75.1562 63.2715V68.7207H109.844V63.2715H75.1562ZM80.9375 73.5645V79.0137H104.062V73.5645H80.9375Z" fill="black"/>
</svg>
